<mxfile host="app.diagrams.net" modified="2024-04-02T06:17:08.223Z" agent="Mozilla/5.0 (Macintosh; Intel Mac OS X 10_15_7) AppleWebKit/537.36 (KHTML, like Gecko) Chrome/123.0.0.0 Safari/537.36" etag="WRQF1BkTZjBvTvPqWROn" version="24.2.1" type="github">
  <diagram name="第 1 页" id="uyAYRrN_ciRT2oY6E2k2">
    <mxGraphModel dx="1004" dy="585" grid="1" gridSize="10" guides="1" tooltips="1" connect="1" arrows="1" fold="1" page="1" pageScale="1" pageWidth="1169" pageHeight="1654" math="0" shadow="0">
      <root>
        <mxCell id="0" />
        <mxCell id="1" parent="0" />
        <mxCell id="3dFxkeG1vcI2UrQQrLY8-1" value="&lt;div&gt;工&lt;div&gt;作&lt;/div&gt;&lt;div&gt;日&lt;/div&gt;&lt;/div&gt;&lt;div&gt;|&lt;/div&gt;&lt;div&gt;早&lt;br&gt;晚&lt;/div&gt;&lt;div&gt;班&lt;br&gt;&lt;/div&gt;" style="rounded=0;whiteSpace=wrap;html=1;" vertex="1" parent="1">
          <mxGeometry x="150" y="100" width="30" height="330" as="geometry" />
        </mxCell>
        <mxCell id="3dFxkeG1vcI2UrQQrLY8-3" value="告警&lt;span style=&quot;background-color: initial;&quot;&gt;响应&lt;/span&gt;&lt;span style=&quot;background-color: initial;&quot;&gt;前&lt;/span&gt;" style="rounded=0;whiteSpace=wrap;html=1;" vertex="1" parent="1">
          <mxGeometry x="180" y="100" width="70" height="130" as="geometry" />
        </mxCell>
        <mxCell id="3dFxkeG1vcI2UrQQrLY8-4" value="告警处理中" style="rounded=0;whiteSpace=wrap;html=1;" vertex="1" parent="1">
          <mxGeometry x="180" y="230" width="70" height="90" as="geometry" />
        </mxCell>
        <mxCell id="3dFxkeG1vcI2UrQQrLY8-5" value="告警处理后" style="rounded=0;whiteSpace=wrap;html=1;" vertex="1" parent="1">
          <mxGeometry x="180" y="320" width="70" height="110" as="geometry" />
        </mxCell>
        <mxCell id="3dFxkeG1vcI2UrQQrLY8-6" value="一线运维(一部小组现场)" style="swimlane;startSize=20;" vertex="1" parent="1">
          <mxGeometry x="250" y="80" width="170" height="350" as="geometry" />
        </mxCell>
        <mxCell id="3dFxkeG1vcI2UrQQrLY8-22" value="" style="edgeStyle=orthogonalEdgeStyle;rounded=0;orthogonalLoop=1;jettySize=auto;html=1;" edge="1" parent="3dFxkeG1vcI2UrQQrLY8-6" source="3dFxkeG1vcI2UrQQrLY8-20" target="3dFxkeG1vcI2UrQQrLY8-21">
          <mxGeometry relative="1" as="geometry" />
        </mxCell>
        <mxCell id="3dFxkeG1vcI2UrQQrLY8-20" value="有效告警" style="ellipse;whiteSpace=wrap;html=1;" vertex="1" parent="3dFxkeG1vcI2UrQQrLY8-6">
          <mxGeometry x="32.5" y="30" width="105" height="40" as="geometry" />
        </mxCell>
        <mxCell id="3dFxkeG1vcI2UrQQrLY8-21" value="告警分派" style="rhombus;whiteSpace=wrap;html=1;" vertex="1" parent="3dFxkeG1vcI2UrQQrLY8-6">
          <mxGeometry x="45" y="90" width="80" height="40" as="geometry" />
        </mxCell>
        <mxCell id="3dFxkeG1vcI2UrQQrLY8-73" value="" style="endArrow=none;html=1;rounded=0;" edge="1" parent="3dFxkeG1vcI2UrQQrLY8-6">
          <mxGeometry width="50" height="50" relative="1" as="geometry">
            <mxPoint y="150" as="sourcePoint" />
            <mxPoint x="360" y="150" as="targetPoint" />
          </mxGeometry>
        </mxCell>
        <mxCell id="3dFxkeG1vcI2UrQQrLY8-12" value="二线运维(一部小组现场)" style="swimlane;startSize=20;" vertex="1" parent="1">
          <mxGeometry x="420" y="80" width="190" height="350" as="geometry" />
        </mxCell>
        <mxCell id="3dFxkeG1vcI2UrQQrLY8-30" value="" style="edgeStyle=orthogonalEdgeStyle;rounded=0;orthogonalLoop=1;jettySize=auto;html=1;" edge="1" parent="3dFxkeG1vcI2UrQQrLY8-12" source="3dFxkeG1vcI2UrQQrLY8-23" target="3dFxkeG1vcI2UrQQrLY8-29">
          <mxGeometry relative="1" as="geometry" />
        </mxCell>
        <mxCell id="3dFxkeG1vcI2UrQQrLY8-23" value="告警处理" style="rounded=1;whiteSpace=wrap;html=1;" vertex="1" parent="3dFxkeG1vcI2UrQQrLY8-12">
          <mxGeometry x="42.5" y="180" width="105" height="45" as="geometry" />
        </mxCell>
        <mxCell id="3dFxkeG1vcI2UrQQrLY8-29" value="告警归档" style="rounded=1;whiteSpace=wrap;html=1;" vertex="1" parent="3dFxkeG1vcI2UrQQrLY8-12">
          <mxGeometry x="42.5" y="287.5" width="105" height="45" as="geometry" />
        </mxCell>
        <mxCell id="3dFxkeG1vcI2UrQQrLY8-75" value="" style="endArrow=none;html=1;rounded=0;" edge="1" parent="3dFxkeG1vcI2UrQQrLY8-12">
          <mxGeometry width="50" height="50" relative="1" as="geometry">
            <mxPoint x="-170" y="240" as="sourcePoint" />
            <mxPoint x="190" y="240" as="targetPoint" />
          </mxGeometry>
        </mxCell>
        <mxCell id="3dFxkeG1vcI2UrQQrLY8-24" style="edgeStyle=orthogonalEdgeStyle;rounded=0;orthogonalLoop=1;jettySize=auto;html=1;" edge="1" parent="1" source="3dFxkeG1vcI2UrQQrLY8-21" target="3dFxkeG1vcI2UrQQrLY8-23">
          <mxGeometry relative="1" as="geometry" />
        </mxCell>
        <mxCell id="3dFxkeG1vcI2UrQQrLY8-59" value="&lt;div&gt;工&lt;div&gt;作&lt;/div&gt;&lt;div&gt;日&lt;/div&gt;&lt;/div&gt;&lt;div&gt;|&lt;/div&gt;&lt;div&gt;夜&lt;/div&gt;&lt;div&gt;班&lt;/div&gt;" style="rounded=0;whiteSpace=wrap;html=1;" vertex="1" parent="1">
          <mxGeometry x="150" y="510" width="30" height="330" as="geometry" />
        </mxCell>
        <mxCell id="3dFxkeG1vcI2UrQQrLY8-60" value="告警&lt;span style=&quot;background-color: initial;&quot;&gt;响应&lt;/span&gt;&lt;span style=&quot;background-color: initial;&quot;&gt;前&lt;/span&gt;" style="rounded=0;whiteSpace=wrap;html=1;" vertex="1" parent="1">
          <mxGeometry x="180" y="510" width="70" height="180" as="geometry" />
        </mxCell>
        <mxCell id="3dFxkeG1vcI2UrQQrLY8-61" value="告警处理中" style="rounded=0;whiteSpace=wrap;html=1;" vertex="1" parent="1">
          <mxGeometry x="180" y="690" width="70" height="70" as="geometry" />
        </mxCell>
        <mxCell id="3dFxkeG1vcI2UrQQrLY8-62" value="告警处理后" style="rounded=0;whiteSpace=wrap;html=1;" vertex="1" parent="1">
          <mxGeometry x="180" y="760" width="70" height="80" as="geometry" />
        </mxCell>
        <mxCell id="3dFxkeG1vcI2UrQQrLY8-63" value="一线运维(南方中心)" style="swimlane;startSize=20;" vertex="1" parent="1">
          <mxGeometry x="250" y="490" width="180" height="350" as="geometry" />
        </mxCell>
        <mxCell id="3dFxkeG1vcI2UrQQrLY8-64" value="" style="edgeStyle=orthogonalEdgeStyle;rounded=0;orthogonalLoop=1;jettySize=auto;html=1;" edge="1" parent="3dFxkeG1vcI2UrQQrLY8-63" source="3dFxkeG1vcI2UrQQrLY8-65" target="3dFxkeG1vcI2UrQQrLY8-66">
          <mxGeometry relative="1" as="geometry" />
        </mxCell>
        <mxCell id="3dFxkeG1vcI2UrQQrLY8-65" value="有效告警" style="ellipse;whiteSpace=wrap;html=1;" vertex="1" parent="3dFxkeG1vcI2UrQQrLY8-63">
          <mxGeometry x="32.5" y="30" width="105" height="40" as="geometry" />
        </mxCell>
        <mxCell id="3dFxkeG1vcI2UrQQrLY8-87" value="" style="edgeStyle=orthogonalEdgeStyle;rounded=0;orthogonalLoop=1;jettySize=auto;html=1;" edge="1" parent="3dFxkeG1vcI2UrQQrLY8-63" source="3dFxkeG1vcI2UrQQrLY8-66" target="3dFxkeG1vcI2UrQQrLY8-86">
          <mxGeometry relative="1" as="geometry" />
        </mxCell>
        <mxCell id="3dFxkeG1vcI2UrQQrLY8-66" value="告警分派" style="rhombus;whiteSpace=wrap;html=1;" vertex="1" parent="3dFxkeG1vcI2UrQQrLY8-63">
          <mxGeometry x="45" y="90" width="80" height="40" as="geometry" />
        </mxCell>
        <mxCell id="3dFxkeG1vcI2UrQQrLY8-86" value="是否响应" style="rhombus;whiteSpace=wrap;html=1;" vertex="1" parent="3dFxkeG1vcI2UrQQrLY8-63">
          <mxGeometry x="45" y="150" width="80" height="40" as="geometry" />
        </mxCell>
        <mxCell id="3dFxkeG1vcI2UrQQrLY8-100" value="" style="endArrow=none;html=1;rounded=0;" edge="1" parent="3dFxkeG1vcI2UrQQrLY8-63">
          <mxGeometry width="50" height="50" relative="1" as="geometry">
            <mxPoint y="200" as="sourcePoint" />
            <mxPoint x="550" y="200" as="targetPoint" />
          </mxGeometry>
        </mxCell>
        <mxCell id="3dFxkeG1vcI2UrQQrLY8-99" value="" style="endArrow=none;html=1;rounded=0;" edge="1" parent="3dFxkeG1vcI2UrQQrLY8-63">
          <mxGeometry width="50" height="50" relative="1" as="geometry">
            <mxPoint y="270" as="sourcePoint" />
            <mxPoint x="550" y="270" as="targetPoint" />
          </mxGeometry>
        </mxCell>
        <mxCell id="3dFxkeG1vcI2UrQQrLY8-67" value="二线运维(居家电话值守)" style="swimlane;startSize=20;" vertex="1" parent="1">
          <mxGeometry x="430" y="490" width="180" height="350" as="geometry" />
        </mxCell>
        <mxCell id="3dFxkeG1vcI2UrQQrLY8-82" value="" style="edgeStyle=orthogonalEdgeStyle;rounded=0;orthogonalLoop=1;jettySize=auto;html=1;" edge="1" parent="3dFxkeG1vcI2UrQQrLY8-67" source="3dFxkeG1vcI2UrQQrLY8-78" target="3dFxkeG1vcI2UrQQrLY8-81">
          <mxGeometry relative="1" as="geometry" />
        </mxCell>
        <mxCell id="3dFxkeG1vcI2UrQQrLY8-78" value="告警处理" style="whiteSpace=wrap;html=1;rounded=1;" vertex="1" parent="3dFxkeG1vcI2UrQQrLY8-67">
          <mxGeometry x="35" y="220" width="120" height="30" as="geometry" />
        </mxCell>
        <mxCell id="3dFxkeG1vcI2UrQQrLY8-81" value="告警归档" style="rounded=1;whiteSpace=wrap;html=1;" vertex="1" parent="3dFxkeG1vcI2UrQQrLY8-67">
          <mxGeometry x="35" y="310" width="120" height="25" as="geometry" />
        </mxCell>
        <mxCell id="3dFxkeG1vcI2UrQQrLY8-71" value="运维组长" style="swimlane;startSize=20;" vertex="1" parent="1">
          <mxGeometry x="610" y="490" width="190" height="350" as="geometry" />
        </mxCell>
        <mxCell id="3dFxkeG1vcI2UrQQrLY8-92" value="" style="edgeStyle=orthogonalEdgeStyle;rounded=0;orthogonalLoop=1;jettySize=auto;html=1;" edge="1" parent="3dFxkeG1vcI2UrQQrLY8-71" source="3dFxkeG1vcI2UrQQrLY8-83" target="3dFxkeG1vcI2UrQQrLY8-91">
          <mxGeometry relative="1" as="geometry" />
        </mxCell>
        <mxCell id="3dFxkeG1vcI2UrQQrLY8-83" value="告警处理" style="whiteSpace=wrap;html=1;rounded=1;" vertex="1" parent="3dFxkeG1vcI2UrQQrLY8-71">
          <mxGeometry x="40" y="220" width="120" height="30" as="geometry" />
        </mxCell>
        <mxCell id="3dFxkeG1vcI2UrQQrLY8-91" value="告警归档" style="rounded=1;whiteSpace=wrap;html=1;" vertex="1" parent="3dFxkeG1vcI2UrQQrLY8-71">
          <mxGeometry x="40" y="310" width="120" height="25" as="geometry" />
        </mxCell>
        <mxCell id="3dFxkeG1vcI2UrQQrLY8-94" style="edgeStyle=orthogonalEdgeStyle;rounded=0;orthogonalLoop=1;jettySize=auto;html=1;entryX=0;entryY=0.5;entryDx=0;entryDy=0;" edge="1" parent="1" source="3dFxkeG1vcI2UrQQrLY8-86" target="3dFxkeG1vcI2UrQQrLY8-78">
          <mxGeometry relative="1" as="geometry">
            <Array as="points">
              <mxPoint x="335" y="725" />
            </Array>
          </mxGeometry>
        </mxCell>
        <mxCell id="3dFxkeG1vcI2UrQQrLY8-95" value="是" style="edgeLabel;html=1;align=center;verticalAlign=middle;resizable=0;points=[];" vertex="1" connectable="0" parent="3dFxkeG1vcI2UrQQrLY8-94">
          <mxGeometry x="0.1318" y="1" relative="1" as="geometry">
            <mxPoint x="4" y="1" as="offset" />
          </mxGeometry>
        </mxCell>
        <mxCell id="3dFxkeG1vcI2UrQQrLY8-96" style="edgeStyle=orthogonalEdgeStyle;rounded=0;orthogonalLoop=1;jettySize=auto;html=1;entryX=0.5;entryY=0;entryDx=0;entryDy=0;" edge="1" parent="1" source="3dFxkeG1vcI2UrQQrLY8-86" target="3dFxkeG1vcI2UrQQrLY8-83">
          <mxGeometry relative="1" as="geometry" />
        </mxCell>
        <mxCell id="3dFxkeG1vcI2UrQQrLY8-97" value="否" style="edgeLabel;html=1;align=center;verticalAlign=middle;resizable=0;points=[];" vertex="1" connectable="0" parent="3dFxkeG1vcI2UrQQrLY8-96">
          <mxGeometry x="-0.9175" y="-1" relative="1" as="geometry">
            <mxPoint as="offset" />
          </mxGeometry>
        </mxCell>
      </root>
    </mxGraphModel>
  </diagram>
</mxfile>
